# xmcd CD database file
#
# Track frame offsets:
#	150
#	11835
#	35310
#	67722
#	86557
#	108540
#	139147
#	158807
#	181225
#	201557
#
# Disc length: 2848 seconds
#
# Revision: 0
# Processed by: cddbd v1.5PL3 Copyright (c) Steve Scherf et al.
# Submitted via: CDex 1.51
#
DISCID=820b1e0a
DTITLE=Bernie Torme - Wild Irish [CD1]
DYEAR=1997
DGENRE=Hard Rock
TTITLE0=Rat
TTITLE1=Ghost Walking
TTITLE2=Follow The Leader
TTITLE3=Bad Blood
TTITLE4=Howling At The Moon
TTITLE5=River
TTITLE6=Walk Don't Run
TTITLE7=Lonesome Train
TTITLE8=One More Heartache
TTITLE9=Yesterday And Nowhere
EXTD=YEAR: 1997
EXTT0=
EXTT1=
EXTT2=
EXTT3=
EXTT4=
EXTT5=
EXTT6=
EXTT7=
EXTT8=
EXTT9=
PLAYORDER=
